<?xml version="1.0" standalone="no"?>
<!DOCTYPE svg PUBLIC "-//W3C//DTD SVG 20010904//EN"
 "http://www.w3.org/TR/2001/REC-SVG-20010904/DTD/svg10.dtd">
<svg version="1.0" xmlns="http://www.w3.org/2000/svg"
 width="205.000000pt" height="205.000000pt" viewBox="0 0 205.000000 205.000000"
 preserveAspectRatio="xMidYMid meet">
<metadata>
Created by potrace 1.11, written by Peter Selinger 2001-2013
</metadata>
<g transform="translate(0.000000,205.000000) scale(0.100000,-0.100000)"
fill="#000000" stroke="none">
<path d="M691 1619 c-43 -19 -49 -26 -95 -107 -31 -55 -33 -63 -18 -68 41 -12
80 -37 91 -58 29 -54 18 -111 -35 -186 -94 -133 -85 -201 32 -246 24 -9 44
-19 44 -23 0 -3 -21 -15 -48 -25 -26 -10 -63 -28 -82 -40 -19 -11 -40 -21 -47
-22 -21 -3 -82 76 -89 115 -4 20 -11 44 -16 54 -7 13 -5 17 11 17 29 0 37 21
15 38 -13 10 -15 16 -7 19 9 3 11 14 6 31 -5 23 -4 25 9 14 18 -14 48 -6 48
13 0 8 -7 20 -15 28 -12 13 -12 16 7 20 13 4 19 11 15 20 -8 22 4 29 18 11 9
-14 16 -14 33 -5 23 12 29 36 12 46 -6 4 -3 16 10 32 34 43 22 98 -25 117 -39
16 -85 24 -85 15 0 -5 5 -9 10 -9 24 0 28 -45 8 -80 -99 -170 -158 -283 -163
-314 -6 -30 -1 -50 30 -112 32 -67 37 -86 39 -162 1 -48 8 -100 16 -117 l13
-30 7 40 c14 96 99 169 269 234 l52 19 19 -21 c34 -36 31 -84 -9 -143 -25 -38
-31 -42 -39 -28 -13 22 -46 14 -50 -14 -2 -12 -10 -22 -18 -22 -8 0 -14 -7
-14 -15 0 -18 -17 -20 -23 -2 -7 18 -42 -6 -42 -29 0 -11 -4 -25 -8 -31 -9
-14 18 -56 75 -118 21 -22 38 -43 38 -47 0 -5 7 -8 15 -8 8 0 15 7 15 15 0 28
107 254 158 333 34 54 37 56 87 37 32 -12 -86 104 -127 126 -42 21 -53 38 -63
90 -6 34 -5 36 24 42 23 5 34 15 44 39 8 18 12 41 9 51 -4 17 -9 19 -46 21
-42 2 -45 115 -5 192 34 63 104 127 188 171 37 20 53 16 117 -28 136 -93 191
-196 163 -302 -8 -32 -13 -37 -30 -32 -42 14 -57 -33 -28 -87 9 -17 14 -19 49
-22 32 -3 -5 -129 -38 -132 -7 -1 -16 -2 -21 -3 -5 0 -39 -31 -75 -67 -64 -64
-65 -67 -5 -48 11 4 27 -14 56 -63 50 -84 124 -232 148 -296 17 -46 18 -47 38
-30 32 29 117 145 117 159 0 8 -5 14 -11 14 -6 0 -9 9 -6 20 7 28 -19 47 -44
32 -10 -7 -19 -8 -19 -3 0 14 -53 71 -67 71 -6 0 -16 -7 -21 -16 -6 -11 -11
-13 -16 -5 -4 6 -4 11 -1 11 3 0 -4 10 -15 22 -27 29 -39 76 -28 110 17 49 32
53 100 28 153 -56 253 -143 260 -225 1 -14 6 -25 9 -25 15 0 28 67 28 140 -1
67 3 83 36 149 50 99 47 116 -59 300 -86 151 -99 187 -71 197 27 11 16 24 -16
19 -49 -9 -88 -33 -95 -59 -7 -28 17 -82 34 -78 7 1 12 -2 12 -8 0 -5 -4 -10
-10 -10 -5 0 -10 -11 -10 -24 0 -30 33 -44 57 -24 15 11 16 11 10 -6 -9 -24
12 -53 24 -34 7 10 9 9 9 -4 0 -10 -7 -18 -15 -18 -9 0 -12 -6 -8 -17 9 -25
25 -34 39 -22 8 7 14 6 19 -1 3 -5 2 -10 -2 -10 -5 0 -9 -18 -9 -40 -1 -31 3
-41 18 -46 13 -4 17 -11 13 -22 -4 -10 -12 -33 -17 -52 -12 -42 -63 -109 -81
-106 -6 2 -47 19 -89 40 -42 20 -81 36 -87 36 -6 0 -11 5 -11 10 0 6 7 10 15
10 28 0 92 38 110 66 24 36 22 74 -7 122 -13 22 -38 64 -55 95 -47 79 -46 137
3 183 19 19 43 34 53 34 31 0 30 10 -6 73 -43 77 -49 84 -87 105 -46 24 -621
26 -675 1z m188 -739 c10 -5 21 -17 25 -25 5 -13 1 -15 -17 -9 -21 7 -37 21
-37 37 0 10 8 9 29 -3z m311 1 c0 -5 -7 -17 -16 -25 -8 -9 -20 -16 -25 -16
-14 0 -11 17 7 34 17 18 34 21 34 7z"/>
<path d="M968 528 c-26 -15 -43 -36 -57 -69 -12 -26 -21 -50 -21 -52 0 -3 17
4 37 14 51 26 141 25 193 -1 39 -20 52 -16 28 8 -7 7 -9 12 -5 12 21 0 -36 79
-67 94 -45 21 -63 20 -108 -6z"/>
</g>
</svg>
